<svg width="30" height="24" viewBox="0 0 30 24" fill="none" xmlns="http://www.w3.org/2000/svg">
<path d="M0.486875 12C0.486875 8.33067 1.19088 5.44 2.59888 3.328C4.02821 1.216 6.32154 0.159998 9.47888 0.159998C12.6362 0.159998 14.9189 1.216 16.3269 3.328C17.7562 5.44 18.4709 8.33067 18.4709 12C18.4709 15.712 17.7562 18.624 16.3269 20.736C14.9189 22.848 12.6362 23.904 9.47888 23.904C6.32154 23.904 4.02821 22.848 2.59888 20.736C1.19088 18.624 0.486875 15.712 0.486875 12ZM13.0949 12C13.0949 9.84533 12.8602 8.192 12.3909 7.04C11.9215 5.86667 10.9509 5.28 9.47888 5.28C8.00688 5.28 7.03621 5.86667 6.56688 7.04C6.09754 8.192 5.86288 9.84533 5.86288 12C5.86288 13.4507 5.94821 14.656 6.11888 15.616C6.28954 16.5547 6.63088 17.3227 7.14288 17.92C7.67621 18.496 8.45488 18.784 9.47888 18.784C10.5029 18.784 11.2709 18.496 11.7829 17.92C12.3162 17.3227 12.6682 16.5547 12.8389 15.616C13.0095 14.656 13.0949 13.4507 13.0949 12ZM20.7859 5.728V0.639999H29.6499V24H23.9539V5.728H20.7859Z" fill="white" fill-opacity="0.4"/>
</svg>
