<svg width="38" height="24" viewBox="0 0 38 24" fill="none" xmlns="http://www.w3.org/2000/svg">
<path d="M0.861875 12C0.861875 8.33067 1.56588 5.44 2.97388 3.328C4.40321 1.216 6.69654 0.159998 9.85388 0.159998C13.0112 0.159998 15.2939 1.216 16.7019 3.328C18.1312 5.44 18.8459 8.33067 18.8459 12C18.8459 15.712 18.1312 18.624 16.7019 20.736C15.2939 22.848 13.0112 23.904 9.85388 23.904C6.69654 23.904 4.40321 22.848 2.97388 20.736C1.56588 18.624 0.861875 15.712 0.861875 12ZM13.4699 12C13.4699 9.84533 13.2352 8.192 12.7659 7.04C12.2965 5.86667 11.3259 5.28 9.85388 5.28C8.38188 5.28 7.41121 5.86667 6.94188 7.04C6.47254 8.192 6.23788 9.84533 6.23788 12C6.23788 13.4507 6.32321 14.656 6.49388 15.616C6.66454 16.5547 7.00588 17.3227 7.51788 17.92C8.05121 18.496 8.82988 18.784 9.85388 18.784C10.8779 18.784 11.6459 18.496 12.1579 17.92C12.6912 17.3227 13.0432 16.5547 13.2139 15.616C13.3845 14.656 13.4699 13.4507 13.4699 12ZM21.5449 19.616C22.2702 19.04 22.6009 18.7733 22.5369 18.816C24.6275 17.088 26.2702 15.6693 27.4649 14.56C28.6809 13.4507 29.7049 12.288 30.5369 11.072C31.3689 9.856 31.7849 8.672 31.7849 7.52C31.7849 6.64533 31.5822 5.96266 31.1769 5.472C30.7715 4.98133 30.1635 4.736 29.3529 4.736C28.5422 4.736 27.9022 5.04533 27.4329 5.664C26.9849 6.26133 26.7609 7.11467 26.7609 8.224H21.4809C21.5235 6.41067 21.9075 4.896 22.6329 3.68C23.3795 2.464 24.3502 1.568 25.5449 0.991999C26.7609 0.415998 28.1049 0.127998 29.5769 0.127998C32.1155 0.127998 34.0249 0.778665 35.3049 2.08C36.6062 3.38133 37.2569 5.07733 37.2569 7.168C37.2569 9.45067 36.4782 11.5733 34.9209 13.536C33.3635 15.4773 31.3795 17.376 28.9689 19.232H37.6089V23.68H21.5449V19.616Z" fill="white" fill-opacity="0.4"/>
</svg>
