<svg width="38" height="25" viewBox="0 0 38 25" fill="none" xmlns="http://www.w3.org/2000/svg">
<path d="M0.815 12C0.815 8.33067 1.519 5.44 2.927 3.328C4.35633 1.216 6.64967 0.159998 9.807 0.159998C12.9643 0.159998 15.247 1.216 16.655 3.328C18.0843 5.44 18.799 8.33067 18.799 12C18.799 15.712 18.0843 18.624 16.655 20.736C15.247 22.848 12.9643 23.904 9.807 23.904C6.64967 23.904 4.35633 22.848 2.927 20.736C1.519 18.624 0.815 15.712 0.815 12ZM13.423 12C13.423 9.84533 13.1883 8.192 12.719 7.04C12.2497 5.86667 11.279 5.28 9.807 5.28C8.335 5.28 7.36433 5.86667 6.895 7.04C6.42567 8.192 6.191 9.84533 6.191 12C6.191 13.4507 6.27633 14.656 6.447 15.616C6.61767 16.5547 6.959 17.3227 7.471 17.92C8.00433 18.496 8.783 18.784 9.807 18.784C10.831 18.784 11.599 18.496 12.111 17.92C12.6443 17.3227 12.9963 16.5547 13.167 15.616C13.3377 14.656 13.423 13.4507 13.423 12ZM21.882 7.232C21.9673 4.94933 22.714 3.18933 24.122 1.952C25.53 0.714666 27.4393 0.0959988 29.85 0.0959988C31.45 0.0959988 32.8153 0.373332 33.946 0.927999C35.098 1.48267 35.962 2.24 36.538 3.2C37.1353 4.16 37.434 5.23733 37.434 6.432C37.434 7.84 37.082 8.992 36.378 9.888C35.674 10.7627 34.8527 11.36 33.914 11.68V11.808C35.13 12.2133 36.09 12.8853 36.794 13.824C37.498 14.7627 37.85 15.968 37.85 17.44C37.85 18.7627 37.5407 19.936 36.922 20.96C36.3247 21.9627 35.4393 22.752 34.266 23.328C33.114 23.904 31.738 24.192 30.138 24.192C27.578 24.192 25.53 23.5627 23.994 22.304C22.4793 21.0453 21.6793 19.1467 21.594 16.608H26.906C26.9273 17.5467 27.194 18.2933 27.706 18.848C28.218 19.3813 28.9647 19.648 29.946 19.648C30.778 19.648 31.418 19.4133 31.866 18.944C32.3353 18.4533 32.57 17.8133 32.57 17.024C32.57 16 32.2393 15.264 31.578 14.816C30.938 14.3467 29.9033 14.112 28.474 14.112H27.45V9.664H28.474C29.562 9.664 30.4367 9.48267 31.098 9.12C31.7807 8.736 32.122 8.064 32.122 7.104C32.122 6.336 31.9087 5.73867 31.482 5.312C31.0553 4.88533 30.4687 4.672 29.722 4.672C28.9113 4.672 28.3033 4.91733 27.898 5.408C27.514 5.89867 27.29 6.50667 27.226 7.232H21.882Z" fill="white" fill-opacity="0.4"/>
</svg>
