<svg width="154" height="18" viewBox="0 0 154 18" fill="none" xmlns="http://www.w3.org/2000/svg">
<path fill-rule="evenodd" clip-rule="evenodd" d="M145.141 17.8704L145.208 17.9315C145.453 17.9469 145.703 17.9546 145.96 17.9546C148.344 17.9546 150.208 17.2906 151.552 15.9626C152.597 14.9298 153.236 13.5535 153.468 11.8337C153.371 9.56069 153.145 5.6728 152.957 4.04947C152.608 4.37767 152.206 4.64988 151.766 4.85556C151.309 5.0683 150.836 5.24679 150.35 5.3894C150.132 5.45769 149.924 5.5234 149.728 5.58907V10.1306C149.728 11.7306 149.4 12.8826 148.744 13.5866C148.088 14.2906 147.168 14.6426 145.984 14.6426C145.428 14.6426 144.93 14.5649 144.49 14.4096C144.456 14.9686 144.374 15.5244 144.245 16.0714C144.145 16.4466 143.988 16.8062 143.781 17.1391C143.781 17.1391 143.752 17.3854 143.698 17.7219C144.163 17.8259 144.655 17.895 145.174 17.9293L145.141 17.8971V17.8704ZM141 1.44436C141.188 1.24664 141.383 1.05397 141.582 0.866577H139.557L139.881 1.04399C140.146 1.19468 140.433 1.30965 140.731 1.38564C140.818 1.41417 140.908 1.43386 141 1.44436ZM138.352 0.866577H139.103L139.786 1.27888C140.057 1.44498 140.351 1.57601 140.658 1.66857L140.547 1.72195C140.041 1.97826 139.479 2.11554 138.907 2.12233C138.722 2.12034 138.536 2.11174 138.352 2.09661V0.866577ZM125.137 1.64188C125.611 1.4146 126.068 1.15549 126.503 0.866577H120.347V3.33366C120.48 3.3858 120.605 3.45219 120.722 3.53165C120.779 3.57084 120.837 3.60493 120.899 3.64064L120.899 3.64072C120.946 3.66821 120.995 3.69668 121.046 3.72917C121.161 3.80904 121.282 3.87873 121.41 3.93737C121.539 3.99764 121.681 4.02696 121.824 4.02278C121.975 4.01682 122.124 3.98984 122.266 3.9427L122.708 3.81992C122.854 3.78601 123.001 3.75928 123.15 3.73984C123.291 3.72163 123.433 3.71094 123.575 3.70782H123.95C124.061 3.72098 124.169 3.74422 124.275 3.77722C124.358 3.80211 124.438 3.83428 124.515 3.8733L124.627 3.93737C124.862 3.83594 125.109 3.73451 125.366 3.64909L125.618 3.56902L125.881 3.51564C126.065 3.47996 126.252 3.46208 126.44 3.46226C126.617 3.46211 126.793 3.4782 126.966 3.5103L127.447 3.63308L129.171 4.08151L129.91 4.27368C130.344 4.31756 130.75 4.39261 131.171 4.47036L131.292 4.49255C131.413 4.51492 131.534 4.53801 131.655 4.56098C131.995 4.62572 132.329 4.68943 132.651 4.73278C132.704 4.73953 132.759 4.74628 132.816 4.7532C132.983 4.77366 133.163 4.79562 133.317 4.82353L133.284 4.2203L133.58 4.2203C133.833 4.21501 134.086 4.2245 134.338 4.24872C134.246 4.05873 134.142 3.87535 134.027 3.69858C133.435 2.78658 132.595 2.09058 131.507 1.61058C130.547 1.17273 129.424 0.928133 128.14 0.876802C127.826 1.01217 127.521 1.1679 127.229 1.34293C126.63 1.71867 125.995 2.03865 125.332 2.29849C125.151 2.36959 124.964 2.42672 124.773 2.46933L124.56 2.51737L124.448 1.88745L124.633 1.82873C124.807 1.78178 124.975 1.71922 125.137 1.64188ZM120.347 5.65734V3.40388C120.472 3.45709 120.59 3.52318 120.699 3.60105L121.018 3.80391C121.132 3.88902 121.254 3.96407 121.382 4.02812C121.519 4.09584 121.67 4.13239 121.824 4.13488C121.981 4.13229 122.137 4.11077 122.288 4.07083L122.73 3.96406C122.875 3.93669 123.02 3.91708 123.167 3.90534C123.301 3.89757 123.436 3.89757 123.57 3.90534C123.69 3.91298 123.809 3.92724 123.928 3.94805C124.027 3.96385 124.125 3.98888 124.219 4.02278L124.249 4.03458H124.235V4.17706C124.176 4.20444 124.117 4.23185 124.058 4.2591C123.858 4.35168 123.663 4.44251 123.469 4.52458C122.865 4.78616 122.305 5.02639 121.824 5.21857L121.158 5.45346C120.986 5.50952 120.81 5.55412 120.632 5.58691L120.347 5.65734ZM124.216 4.42185L124.235 4.41308V7.32091C124.004 7.46686 123.76 7.58024 123.497 7.64751L123.598 8.27743C123.816 8.24289 124.03 8.18824 124.235 8.11462V9.14196C124.123 9.15527 124.008 9.16453 123.894 9.16963C123.823 9.16341 123.754 9.15177 123.688 9.13492L123.595 9.10367C123.551 9.08601 123.508 9.06628 123.467 9.04464L123.405 9.0134L123.359 9.05506L123.266 9.13492C123.244 9.15377 123.226 9.1699 123.209 9.18461C123.18 9.21053 123.155 9.23206 123.123 9.25642C122.922 9.40919 122.711 9.54807 122.49 9.68695C122.244 9.82436 122.013 9.97283 121.796 10.1314C121.694 10.2113 121.599 10.296 121.514 10.3848C121.478 10.4179 121.478 10.4248 121.474 10.4274C121.471 10.4299 121.465 10.4283 121.416 10.4438L121.205 10.5098C120.93 10.6198 120.643 10.7166 120.347 10.7993V5.84225L120.649 5.77376C120.838 5.74131 121.025 5.69672 121.208 5.6403L121.886 5.41609L122.921 5.00504V5.06376C122.921 5.10604 122.904 5.14833 122.886 5.19424L122.886 5.19429C122.874 5.22371 122.862 5.25462 122.854 5.28797C122.831 5.37338 122.809 5.45345 122.781 5.54421C122.762 5.60413 122.768 5.61052 122.774 5.61717C122.778 5.62059 122.781 5.62408 122.781 5.63496C122.753 5.62964 122.725 5.62964 122.697 5.63496C122.638 5.64375 122.583 5.66571 122.535 5.69902C122.487 5.73065 122.443 5.76836 122.406 5.81112C122.33 5.89558 122.266 5.98886 122.216 6.08872C122.109 6.28131 122.017 6.48115 121.941 6.68661L121.74 7.22045L121.713 7.29613C121.669 7.41724 121.633 7.51862 121.6 7.59413C121.561 7.68488 121.533 7.72759 121.533 7.72759C121.561 7.685 121.585 7.64038 121.606 7.59413L121.618 7.56692L121.618 7.56649C121.656 7.47811 121.707 7.36014 121.762 7.22045C121.824 7.06563 121.897 6.88413 121.981 6.68661C122.061 6.48802 122.156 6.29531 122.266 6.11007C122.322 6.02194 122.388 5.93965 122.462 5.86451C122.519 5.79959 122.598 5.75608 122.686 5.74172C122.706 5.73651 122.727 5.7365 122.747 5.74172C122.786 5.7462 122.826 5.7462 122.865 5.74172C122.893 5.67778 122.915 5.61384 122.937 5.5499L122.937 5.54973L122.937 5.54955C122.948 5.51943 122.961 5.4787 122.975 5.43566L122.975 5.4353L122.975 5.43514C122.99 5.38679 123.007 5.33558 123.021 5.2933L123.1 5.07977L123.161 4.92496L123.195 4.85556C123.238 4.83787 123.28 4.82075 123.323 4.80364L123.324 4.80338C123.409 4.76897 123.495 4.73457 123.581 4.69541C123.791 4.61088 124.002 4.51687 124.216 4.42185ZM115.625 12.1218L114.933 10.574L114.888 10.5758C114.623 10.5911 114.356 10.5782 114.097 10.5376C114.021 10.5213 113.949 10.4991 113.881 10.4716C113.845 10.4585 113.812 10.4422 113.783 10.423L113.737 10.3917C113.727 10.3709 113.685 10.3917 113.685 10.3917L113.629 10.4195C113.563 10.4483 113.495 10.4739 113.423 10.4959C112.895 10.6693 112.3 10.7252 111.722 10.6556L111.46 10.6244C111.424 10.7077 111.388 10.7945 111.357 10.8778C111.335 10.9434 111.313 11.0076 111.292 11.07L111.31 11.1146H111.277C111.267 11.1426 111.258 11.1702 111.249 11.1974C111.168 11.4379 111.098 11.6471 111.033 11.8083C110.992 11.843 110.992 11.8708 110.992 11.902L111.732 11.9819C111.849 11.9943 111.967 12.0067 112.086 12.0192C112.366 12.0487 112.652 12.0786 112.93 12.1103C113.326 12.1555 113.706 12.1971 114.076 12.2214C114.599 12.2804 115.133 12.2451 115.625 12.1218ZM110.971 10.296C111.144 10.0062 111.37 9.73153 111.645 9.47863C111.892 9.26723 112.171 9.07405 112.478 8.90229C112.805 8.74187 113.149 8.59687 113.506 8.4683C113.647 8.41851 113.787 8.3701 113.926 8.3229L113.465 7.29081C113.46 7.29329 113.454 7.29578 113.449 7.29827C113.332 7.35583 113.193 7.38847 113.048 7.39201H112.657C112.556 7.40233 112.489 7.45778 112.41 7.52335C112.33 7.59019 112.237 7.66755 112.082 7.71837C111.857 7.79304 111.625 7.85798 111.388 7.91279C111.304 7.94207 111.22 7.99185 111.127 8.04645C111.034 8.10193 110.931 8.16239 110.812 8.21139L110.596 8.27388C110.521 8.27903 110.445 8.27903 110.37 8.27388C110.288 8.2707 110.207 8.26466 110.126 8.2558L110.971 10.296ZM106.65 9.48647L105.973 11.1146H110.601C110.592 11.1369 110.583 11.1589 110.574 11.1805C110.496 11.3756 110.429 11.5407 110.37 11.6729C110.35 11.7089 110.334 11.7435 110.32 11.7747C110.313 11.7916 110.305 11.8075 110.298 11.8222L110.169 11.8077C109.128 11.691 108.093 11.575 107.086 11.475C105.674 11.3443 104.247 11.3094 102.825 11.3708C102.564 11.3847 102.304 11.4039 102.045 11.4284L102.429 10.5676C102.584 10.5239 102.742 10.4838 102.902 10.4473C103.276 10.3513 103.676 10.2622 104.09 10.1699C104.65 10.0451 105.236 9.91451 105.821 9.75292C106.103 9.67144 106.379 9.58254 106.65 9.48647ZM107.839 6.62751L107.029 8.57432C106.528 8.76762 105.995 8.92193 105.441 9.03423L104.978 9.12103C105.001 9.09258 105.02 9.06275 105.038 9.03329C105.049 9.016 105.059 8.99884 105.071 8.98215C105.087 8.95814 105.095 8.95181 105.094 8.94958C105.093 8.94762 105.085 8.94883 105.071 8.94395L105.019 8.91966L104.922 8.86757C104.779 8.77089 104.675 8.65148 104.618 8.52038C104.552 8.37923 104.464 8.2431 104.356 8.11417C104.271 8.00787 104.232 7.88758 104.243 7.76698C104.261 7.64281 104.25 7.51755 104.212 7.39548C104.229 7.51851 104.219 7.64255 104.182 7.7635C104.141 7.89371 104.159 8.02901 104.233 8.15236C104.315 8.28426 104.377 8.42155 104.418 8.56204C104.445 8.6372 104.477 8.71137 104.516 8.78425C104.535 8.82204 104.561 8.85817 104.593 8.89188L104.644 8.94395C104.652 8.95817 104.665 8.97116 104.68 8.98215C104.708 8.99639 104.698 9.00738 104.689 9.01734C104.684 9.02196 104.68 9.02636 104.68 9.03075C104.638 9.07644 104.591 9.12049 104.541 9.16269L104.459 9.2113L102.92 9.46421L106.752 0.866577H110.592L113.431 7.21399C113.42 7.21781 113.409 7.2216 113.398 7.22536C113.243 7.30061 113.084 7.2927 112.898 7.28351C112.818 7.27955 112.733 7.27535 112.642 7.27744C112.6 7.28021 112.559 7.28603 112.519 7.29479L112.416 7.33993C112.354 7.36826 112.3 7.40349 112.257 7.4441L112.128 7.53783L112 7.60033C111.895 7.63856 111.775 7.65995 111.645 7.68304C111.539 7.70189 111.426 7.72188 111.311 7.75309C111.164 7.79262 111.045 7.85579 110.934 7.9144C110.85 7.95873 110.771 8.00046 110.689 8.02737C110.503 8.08844 110.337 8.05668 110.109 8.01308L110.093 8.01001L110.019 7.99638L109.996 7.94125L110.745 7.55519C111.372 7.2323 111.886 6.95802 112.246 6.76359L112.812 6.46154L112.586 6.25322L111.984 6.52056C111.604 6.69069 111.059 6.93372 110.396 7.21495C110.285 7.26204 110.175 7.30885 110.065 7.35557C109.977 7.39314 109.888 7.43067 109.8 7.46825L109.169 5.94631C109.325 5.55214 109.52 5.16517 109.753 4.78807C109.901 4.58312 110.124 4.40732 110.401 4.2777C110.505 4.22945 110.617 4.18982 110.735 4.15966L110.658 3.99995C110.517 4.02808 110.382 4.06896 110.257 4.12147C109.929 4.25975 109.658 4.45058 109.466 4.67698C109.28 4.93215 109.114 5.19307 108.967 5.45877L108.647 4.68497L107.93 6.40782C107.93 6.40721 107.929 6.4066 107.929 6.40599C107.877 6.35199 107.869 6.27443 107.859 6.1858C107.851 6.11486 107.842 6.03682 107.81 5.95811C107.788 5.91382 107.761 5.87086 107.728 5.82965C107.688 5.79264 107.643 5.75781 107.595 5.72549C107.505 5.68173 107.424 5.63039 107.353 5.57273C107.353 5.55639 107.335 5.54006 107.317 5.52372C107.305 5.51228 107.292 5.50084 107.286 5.48941C107.289 5.45587 107.289 5.42226 107.286 5.38872C107.281 5.32395 107.281 5.25906 107.286 5.19429C107.279 5.09601 107.258 4.99839 107.224 4.90265V4.91307C107.241 5.00879 107.241 5.10551 107.224 5.20123C107.219 5.26714 107.219 5.33322 107.224 5.39913V5.51024C107.241 5.55088 107.264 5.59039 107.291 5.62828C107.358 5.69736 107.437 5.76038 107.528 5.81577C107.548 5.83164 107.562 5.84751 107.576 5.86338C107.586 5.87529 107.597 5.88719 107.61 5.89909C107.631 5.93142 107.646 5.96518 107.656 5.99978C107.647 6.16273 107.666 6.32584 107.713 6.48584C107.748 6.53597 107.79 6.58339 107.839 6.62751ZM101.481 12.6927C101.977 12.5998 102.483 12.5316 102.994 12.4888C104.308 12.382 105.634 12.3645 106.952 12.4367C107.933 12.4759 108.973 12.552 110.028 12.6292C110.56 12.6681 111.096 12.7073 111.629 12.7422L112.822 12.8186C113.218 12.8499 113.629 12.8776 114.045 12.8915C114.478 12.9116 114.912 12.8906 115.335 12.829C115.524 12.7983 115.708 12.759 115.889 12.7115L118.104 17.6666H114.024L112.533 14.0666H104.745L103.248 17.6666H99.5518C99.5465 17.4542 99.5454 17.2417 99.5484 17.0293L101.481 12.6927ZM94.3482 12.5514V13.4828C94.0375 13.5759 93.7309 13.6751 93.4286 13.7803L93.3645 13.8018C92.8259 13.9821 92.2899 14.1615 91.7016 14.3185C91.2964 14.4298 90.8819 14.5243 90.4602 14.6017V12.8115C90.7776 12.7774 91.0938 12.7382 91.4086 12.6936C92.2545 12.5787 93.1158 12.524 93.9786 12.5304C94.1023 12.5343 94.2255 12.5413 94.3482 12.5514ZM94.3482 8.63987V11.4318C94.2165 11.4307 94.0847 11.4323 93.9529 11.4368C93.2592 11.4614 92.5707 11.5311 91.8969 11.6451C91.7092 11.2117 91.4791 10.7872 91.2081 10.3744V10.3952C91.038 10.0441 90.7851 9.71459 90.4602 9.41921V7.54341L90.5799 7.57151C91.9923 7.90323 93.3856 8.23045 94.3482 8.63987ZM94.3482 7.5676V8.121C93.8581 7.95075 93.3477 7.80791 92.8221 7.69406C92.7795 7.65328 92.7417 7.61033 92.709 7.5656C92.6467 7.48337 92.5895 7.38028 92.5285 7.27039C92.4839 7.19006 92.4373 7.1061 92.3852 7.02399C92.3215 6.91185 92.2369 6.80568 92.1333 6.70804C92.0056 6.60023 91.8217 6.52945 91.6193 6.51015C91.4552 6.49641 91.2934 6.47198 91.1362 6.43723C91.0703 6.41812 91.0082 6.39363 90.9511 6.36433C90.904 6.32623 90.8675 6.28272 90.8432 6.23587C90.7983 6.13397 90.7433 6.03421 90.6787 5.93728C90.6157 5.86744 90.5425 5.80211 90.4602 5.74226V4.03458H85.0842V0.866577H99.7242V4.03458H94.3482V6.52299C93.8514 6.1349 93.3321 5.75998 92.7913 5.39913C92.7265 5.3583 92.6635 5.3184 92.6021 5.27955C92.2198 5.0376 91.9019 4.83638 91.645 4.70475L91.1978 4.45477L90.9511 4.6492L91.3469 4.92696C91.5966 5.08887 91.9191 5.34581 92.3049 5.65321L92.3389 5.68036C93.0664 6.28078 93.7374 6.91111 94.3482 7.5676ZM90.4602 5.83033V7.18913C90.5123 7.2004 90.5646 7.21132 90.617 7.22189C91.1876 7.33993 91.7735 7.46145 92.3389 7.58643C92.2887 7.50158 92.2442 7.40117 92.1984 7.29788C92.1693 7.23212 92.1396 7.16519 92.1076 7.10037C92.0674 6.99975 92.005 6.90378 91.9226 6.81567C91.8849 6.77425 91.8348 6.73864 91.7755 6.71113C91.7162 6.68361 91.649 6.66482 91.5782 6.65597C91.4019 6.63207 91.2296 6.596 91.0642 6.54834C90.9791 6.52127 90.9024 6.48357 90.838 6.43723C90.7814 6.38806 90.7411 6.33123 90.7198 6.27059C90.686 6.17054 90.643 6.07198 90.5913 5.97547C90.5523 5.9252 90.5085 5.87672 90.4602 5.83033ZM90.4602 10.0415V10.5866C90.5352 10.5777 90.6098 10.5671 90.6838 10.5549H90.725C90.7272 10.5411 90.7272 10.5271 90.725 10.5133C90.6527 10.3518 90.5642 10.1942 90.4602 10.0415ZM90.4602 10.8486V11.9024L91.1362 11.784L91.2698 11.7597C91.1619 11.4403 91.0488 11.1278 90.9049 10.8223H90.7918C90.6819 10.8347 90.5713 10.8435 90.4602 10.8486ZM82.132 9.95315L78.069 0.866577H74.229L66.741 17.6666H70.725L72.2221 14.0666H80.0097L81.501 17.6666H85.581L84.4199 15.07C84.3842 15.0584 84.3493 15.0464 84.3154 15.0337L83.7602 14.8323C83.6163 14.7766 83.4742 14.7191 83.3331 14.662C83.1314 14.5804 82.9318 14.4996 82.7322 14.4261C82.4126 14.2895 82.0712 14.1777 81.7145 14.0928C81.55 14.0546 81.365 14.0164 81.2005 14.0025C81.1445 13.9978 81.088 13.9911 81.0306 13.9842C80.9194 13.971 80.8052 13.9574 80.6865 13.9574C80.3946 13.9391 80.0968 13.9328 79.7965 13.9264C79.3565 13.9171 78.9111 13.9076 78.4711 13.8602C78.1236 13.8179 77.7802 13.7611 77.4431 13.6901C77.1287 13.6253 76.8198 13.5488 76.5179 13.4609C75.5724 13.2059 74.7098 12.8285 73.9787 12.3499C73.8574 12.2744 73.744 12.1932 73.6395 12.1069L73.4236 11.9055L73.2489 11.7354L73.5727 11.6L73.7474 11.7458L73.953 11.9229C74.0023 11.9624 74.0681 12.0006 74.1395 12.0421C74.1873 12.0699 74.2376 12.0991 74.2872 12.1312C75.2614 12.669 76.4011 13.0533 77.623 13.2561C77.7408 13.2783 77.8628 13.2948 77.9813 13.3107L78.0137 13.3151C77.8955 13.2144 77.7618 13.0998 77.6282 12.9679C77.1202 12.4806 76.6976 11.9551 76.3689 11.4021C76.2352 11.3743 76.0656 11.3743 75.8549 11.3743C75.6034 11.3669 75.3528 11.3495 75.1044 11.3222C74.8357 11.2958 74.5817 11.2243 74.3655 11.1146H73.4497L73.6171 10.712C73.504 10.6861 73.3866 10.6711 73.2734 10.6565C73.1645 10.6425 73.0595 10.6291 72.9662 10.607C72.7462 10.5505 72.54 10.4721 72.3545 10.3744C72.5665 10.4476 72.7934 10.4991 73.0278 10.5271C73.1288 10.5446 73.232 10.5512 73.3411 10.5581C73.4438 10.5647 73.5519 10.5716 73.6686 10.5882L74.2779 9.12288C74.2384 9.09665 74.1986 9.07057 74.1586 9.04464C73.8297 8.82938 73.5521 8.62802 73.3774 8.4822L73.0998 8.26346L73.29 8.15236L73.5778 8.36068C73.7559 8.49471 74.0347 8.66616 74.3744 8.87504L74.3797 8.87829L76.1235 4.68497L77.6441 8.35582C77.9496 8.51177 78.2705 8.65376 78.6048 8.78077C79.3574 9.07494 80.133 9.34151 80.9281 9.57932C80.862 9.39465 80.7576 9.20999 80.6505 9.02079C80.5161 8.78313 80.3777 8.53831 80.3061 8.27735C80.2757 8.17823 80.269 8.08037 80.2625 7.98612C80.2503 7.80966 80.239 7.64584 80.0748 7.51005C79.9538 7.39298 79.8892 7.25356 79.8898 7.11079V6.90594C79.8841 6.84051 79.8633 6.77608 79.8281 6.71499C79.7706 6.62909 79.6944 6.5495 79.6019 6.4789C79.7131 6.54181 79.8055 6.61839 79.8744 6.70458C79.9189 6.76821 79.9484 6.83615 79.9617 6.90594V7.10732C79.9795 7.23524 80.0548 7.35641 80.1776 7.45451C80.2429 7.51132 80.2981 7.57307 80.3421 7.63852C80.3813 7.70465 80.4106 7.77328 80.4295 7.84336C80.4458 7.97666 80.4767 8.10896 80.522 8.23916C80.6089 8.46293 80.7592 8.67437 80.9135 8.89139C81.0967 9.14913 81.2855 9.41473 81.3804 9.71819C81.6329 9.79365 81.8835 9.87198 82.132 9.95315ZM82.3218 10.3777C81.8244 10.1924 81.3185 10.0176 80.8047 9.8536C79.9864 9.58718 79.1887 9.29285 78.4146 8.97174C78.1966 8.8811 77.9846 8.78429 77.779 8.68159L78.5957 10.653C78.6725 10.6798 78.75 10.706 78.8277 10.7324C78.9969 10.7897 79.1674 10.8474 79.3347 10.9125C79.6282 11.0436 79.8842 11.2094 80.0902 11.4021C80.1354 11.437 80.1917 11.4645 80.2549 11.4826C80.3182 11.5006 80.3866 11.5087 80.4552 11.5062C80.6271 11.4986 80.7998 11.5056 80.9692 11.5271C80.9704 11.5178 80.9704 11.5085 80.9692 11.4993L81.771 11.4125V11.4368C82.0213 11.4085 82.2734 11.3888 82.5266 11.3778C82.6107 11.384 82.6947 11.391 82.7784 11.3989L82.3218 10.3777ZM82.9938 11.8805C82.8208 11.848 82.6462 11.8193 82.4701 11.7944C81.8413 11.7945 81.2137 11.8305 80.594 11.902L79.8487 11.9576L79.8024 11.7041L80.1262 11.659C80.0344 11.6254 79.9539 11.5793 79.8898 11.5236C79.7213 11.3274 79.4999 11.1543 79.237 11.0132C79.0822 10.9402 78.9175 10.8717 78.7512 10.8026C78.7136 10.7869 78.6758 10.7712 78.6381 10.7555L78.7869 11.1146H76.8072C77.1807 11.6672 77.6456 12.19 78.1936 12.6728C78.415 12.8641 78.6554 13.0451 78.9132 13.2144C79.0365 13.2873 79.1188 13.3394 79.165 13.3706H80.7739C80.8735 13.3706 80.9743 13.3784 81.0758 13.3861C81.1786 13.394 81.2821 13.4019 81.3855 13.4019C81.5984 13.4216 81.8095 13.4494 82.0178 13.4852C82.4302 13.5608 82.8286 13.668 83.2051 13.8046C83.4579 13.8985 83.7142 13.9878 83.9739 14.0724L82.9938 11.8805ZM75.3307 11.1146H75.7786C75.6291 11.1247 75.479 11.1246 75.3307 11.1146ZM90.4602 15.5945V17.6666H94.3482V14.7106C94.2596 14.7353 94.169 14.7608 94.0763 14.7872C94.0014 14.8085 93.9248 14.8304 93.8466 14.8527C93.3502 14.9948 92.7879 15.1556 92.1796 15.2906C91.6176 15.4193 91.043 15.5209 90.4602 15.5945ZM114.074 8.65258C113.957 8.69683 113.841 8.74184 113.727 8.78772C113.407 8.91873 113.1 9.06249 112.807 9.21824C112.547 9.37694 112.312 9.55384 112.107 9.74597C111.893 9.95033 111.72 10.1734 111.593 10.4091C111.659 10.4248 111.726 10.4365 111.794 10.4438C112.303 10.537 112.842 10.52 113.336 10.3952C113.406 10.3793 113.473 10.3583 113.536 10.3327L113.675 10.2841L113.742 10.2598C113.773 10.239 113.799 10.2841 113.799 10.2841C113.828 10.3134 113.861 10.3412 113.896 10.3674C113.915 10.3859 113.94 10.4013 113.968 10.4126C114.02 10.4388 114.077 10.4598 114.138 10.4751C114.378 10.5288 114.63 10.5557 114.883 10.5549H114.924L114.074 8.65258ZM120.347 11.2612C120.819 11.2031 121.26 11.1578 121.658 11.1174L122.907 11.0341L124.002 10.9959V10.7389H122.886L121.606 10.7737L121.174 10.8014L121.375 10.7181L121.565 10.6487C121.616 10.6345 121.665 10.6158 121.709 10.5931L121.786 10.5063C121.857 10.4211 121.938 10.3399 122.028 10.2633C122.21 10.1044 122.406 9.95255 122.614 9.80847C122.819 9.66265 123.03 9.50988 123.22 9.3467C123.246 9.32503 123.273 9.2989 123.297 9.27464C123.316 9.25613 123.333 9.2387 123.349 9.22518L123.39 9.18352V9.16269H123.421C123.44 9.17206 123.461 9.1802 123.482 9.18699L123.59 9.22171C123.669 9.23768 123.75 9.247 123.832 9.24948C123.973 9.24948 124.107 9.23677 124.235 9.21543V9.89058H127.403C127.721 9.89058 128.017 9.87264 128.292 9.83677V9.86292L128.567 9.93766C128.656 9.96363 128.748 9.9815 128.841 9.99104C128.934 9.99921 129.027 9.99921 129.121 9.99104H129.4C129.448 9.98543 129.495 9.97469 129.54 9.95902L129.675 9.92699C129.766 9.9032 129.856 9.87287 129.943 9.83624C130.022 9.79839 130.107 9.77314 130.195 9.7615C130.232 9.7533 130.27 9.7533 130.307 9.7615C130.344 9.77788 130.38 9.79754 130.413 9.82022L130.553 9.93766L130.682 10.0925L130.715 10.1352C130.503 10.3263 130.279 10.5046 130.044 10.669C129.965 10.726 129.88 10.776 129.792 10.8185C129.734 10.8549 129.672 10.8854 129.607 10.9092L129.451 10.9786L129.619 11.5979L129.82 11.5285C129.901 11.5017 129.979 11.4696 130.055 11.4324C130.16 11.3879 130.261 11.3362 130.357 11.2776C130.93 10.9209 131.476 10.5267 131.991 10.0978C132.307 9.8491 132.655 9.63926 133.026 9.47322C133.204 9.39644 133.392 9.34603 133.586 9.32375C133.627 9.31841 133.668 9.31841 133.709 9.32375H133.843C133.947 9.33855 134.05 9.35994 134.151 9.38781C134.24 9.41908 134.329 9.45123 134.417 9.48426C134.306 9.73428 134.176 9.97372 134.027 10.2026C133.602 10.8459 133.049 11.382 132.369 11.8109C132.255 11.7295 132.144 11.6442 132.036 11.5552C131.916 11.4623 131.789 11.3784 131.655 11.3043L131.499 11.2349L131.65 11.3096C131.783 11.3852 131.909 11.4728 132.025 11.5712C132.079 11.6135 132.135 11.6606 132.193 11.7098C132.24 11.749 132.288 11.7896 132.338 11.8301C132.079 11.9909 131.802 12.1364 131.507 12.2666L131.474 12.281L131.854 12.8259C131.585 12.939 131.324 13.0708 131.073 13.2207L130.57 13.509H130.161H130.066H129.999C129.944 13.5035 129.89 13.4927 129.837 13.477C129.717 13.4452 129.6 13.4078 129.484 13.3649C129.357 13.3198 129.226 13.2841 129.093 13.2581C129.022 13.2499 128.951 13.2499 128.88 13.2581L128.667 13.2955L128.471 13.3649L128.276 13.4503L128.201 13.4906L128.164 13.5106L127.802 12.9854C127.742 12.9862 127.681 12.9866 127.619 12.9866H124.235V17.6666H120.347V11.2612ZM127.403 4.03458C127.516 4.03458 127.626 4.03683 127.733 4.04133L127.392 3.94805L126.916 3.81459C126.76 3.7886 126.603 3.77078 126.446 3.7612C126.28 3.76161 126.116 3.7777 125.953 3.80925L125.707 3.85195L125.467 3.92669C125.358 3.95945 125.25 3.99572 125.144 4.03458H127.403ZM130.979 6.96258C130.979 6.6048 130.935 6.27793 130.847 5.98198C130.908 6.00255 130.968 6.02389 131.029 6.04601L131.093 6.06595L131.093 6.06608C131.52 6.19861 131.959 6.33459 132.427 6.44639C133.019 6.6057 133.631 6.6883 134.246 6.69195C134.324 6.60133 134.403 6.52135 134.481 6.44138L134.481 6.44105L134.671 6.23819C134.731 6.16795 134.793 6.10004 134.858 6.03463C134.896 6.33262 134.915 6.64194 134.915 6.96258C134.915 7.54671 134.851 8.09404 134.721 8.60457C134.612 8.57538 134.502 8.54819 134.392 8.523C134.252 8.49225 134.109 8.47261 133.966 8.46428C133.89 8.45608 133.813 8.45608 133.737 8.46428C133.659 8.45324 133.58 8.45324 133.502 8.46428C133.361 8.4903 133.222 8.52781 133.088 8.57639C132.96 8.61697 132.836 8.6688 132.718 8.7312C132.564 8.73921 132.409 8.73921 132.254 8.7312C131.891 8.66891 131.54 8.55368 131.213 8.38954C131.062 8.32049 130.907 8.25989 130.748 8.20803C130.902 7.84281 130.979 7.42766 130.979 6.96258ZM138.471 6.00864C138.431 6.02391 138.392 6.03847 138.352 6.05232V7.15858C138.384 7.18388 138.418 7.20779 138.452 7.23194L138.452 7.23204C138.471 7.24579 138.49 7.25962 138.51 7.27383L138.627 7.34322L138.678 7.37526V7.43398V7.51405C138.627 7.85681 138.652 8.20594 138.75 8.53901C138.767 8.57564 138.785 8.61129 138.806 8.64578L140.043 8.99811H140.138C140.831 8.85588 141.533 8.7619 142.24 8.71683V3.00423C142.045 3.18529 141.855 3.36996 141.664 3.55569L141.664 3.55605L141.664 3.55636C141.358 3.85317 141.051 4.15269 140.714 4.44451C140.188 4.93878 139.608 5.37894 138.985 5.75774L138.739 5.88586L138.616 5.94992L138.471 6.00864ZM138.532 3.79857C138.473 3.84668 138.413 3.89357 138.352 3.93919V3.7765C138.412 3.78441 138.472 3.79176 138.532 3.79857ZM138.352 8.49996V7.24272C138.392 7.27764 138.434 7.31116 138.476 7.34322L138.588 7.41797V7.49804C138.514 7.85045 138.514 8.21329 138.588 8.56571L138.352 8.49996ZM138.352 9.69739V8.78389L139.579 9.24901L139.159 9.38781C138.889 9.46471 138.627 9.56478 138.376 9.68676L138.352 9.69739ZM138.53 12.3233C138.455 11.9238 138.404 11.5042 138.376 11.0646L138.404 11.0534L138.801 10.9039C139.025 10.8145 139.257 10.7448 139.495 10.6957C139.721 10.6282 139.953 10.5782 140.188 10.5462C140.645 10.4659 141.107 10.4213 141.571 10.4128C141.185 10.6161 140.812 10.8389 140.451 11.0801L140.261 11.2082L140.261 11.2083C140.188 11.2617 140.116 11.315 140.043 11.379L139.629 11.7474L139.215 12.121L139.058 12.2812L138.722 12.3079C138.661 12.3079 138.597 12.3137 138.53 12.3233ZM132.54 13.8102L132.273 13.4271C131.923 13.5254 131.583 13.6564 131.258 13.8186C130.564 14.1389 129.926 14.5019 129.384 14.8169C129.306 14.8621 129.229 14.9062 129.155 14.9491L129.9 16.0296C129.974 15.9344 130.052 15.8416 130.133 15.7511C130.448 15.4027 130.793 15.0795 131.163 14.7849C131.619 14.4244 132.104 14.0975 132.54 13.8102ZM129.188 14.4486C129.099 14.5084 129.013 14.5665 128.93 14.6226L128.263 13.6542L128.287 13.6425L128.477 13.5677L128.667 13.509L128.863 13.477H129.053C129.179 13.5099 129.303 13.5509 129.423 13.5998C129.54 13.6478 129.658 13.6958 129.775 13.7332L129.954 13.7759H130.044H130.223C129.954 13.9441 129.703 14.1095 129.465 14.2663L129.464 14.2672L129.463 14.2679C129.369 14.3296 129.278 14.3899 129.188 14.4486ZM130.583 17.0216L130.027 16.2149C130.111 16.1122 130.198 16.0127 130.29 15.9166C130.603 15.587 130.944 15.2817 131.308 15.0037C131.308 15.0664 131.297 15.1363 131.284 15.2147C131.275 15.27 131.265 15.3294 131.258 15.3934C131.252 15.4522 131.25 15.4949 131.249 15.5307C131.247 15.5892 131.245 15.6295 131.224 15.6924C131.214 15.802 131.195 15.9108 131.168 16.018C131.145 16.1304 131.114 16.2411 131.073 16.349C131.021 16.4521 130.96 16.5504 130.889 16.6426L130.659 16.9202C130.634 16.954 130.608 16.9878 130.583 17.0216ZM130.693 16.9736L130.615 17.0685L131.027 17.6666H131.19L131.208 17.6622C131.298 17.6279 131.392 17.6028 131.487 17.5875C131.745 17.5311 132.058 17.5077 132.393 17.4827C132.597 17.4675 132.809 17.4516 133.021 17.4274C133.076 17.4208 133.131 17.408 133.188 17.3951C133.268 17.3766 133.35 17.358 133.429 17.358L133.826 17.2672C134.061 17.2114 134.301 17.1757 134.543 17.1604H134.677L134.828 17.0929L133.673 15.4365C133.592 15.4283 133.51 15.43 133.429 15.4415C133.332 15.4534 133.237 15.473 133.144 15.5002L132.858 15.591C132.824 15.5986 132.79 15.6096 132.756 15.6207C132.695 15.6405 132.634 15.6604 132.573 15.6604L132.276 15.7084V15.6764L132.567 15.623L132.853 15.5483L133.138 15.4522C133.232 15.4184 133.33 15.3951 133.429 15.3828C133.496 15.374 133.563 15.3709 133.63 15.3736L132.699 14.0381C132.319 14.2761 131.908 14.541 131.504 14.8329L131.471 14.9824C131.466 15.0033 131.459 15.0269 131.452 15.053C131.427 15.147 131.392 15.2727 131.392 15.4148C131.386 15.4483 131.378 15.4817 131.369 15.5156C131.353 15.5791 131.336 15.6442 131.336 15.7137C131.322 15.8276 131.297 15.94 131.264 16.0501C131.235 16.1695 131.194 16.2858 131.141 16.3971C131.083 16.508 131.011 16.612 130.928 16.7067L130.693 16.9736ZM133.701 17.6666H131.321C131.374 17.6538 131.428 17.6434 131.482 17.6356C131.717 17.5962 131.954 17.573 132.192 17.5662C132.45 17.5662 132.752 17.5661 133.015 17.5288C133.122 17.5288 133.23 17.5099 133.335 17.4915C133.366 17.4859 133.398 17.4804 133.429 17.4754L133.832 17.406C133.999 17.3772 134.167 17.3576 134.336 17.3473C134.2 17.4013 134.067 17.4619 133.938 17.5288L133.701 17.6666ZM135.227 17.6666H135.177L135.218 17.6526L135.227 17.6666ZM140.368 15.9626C140.245 15.8416 140.129 15.7159 140.017 15.5855C140.062 15.5231 140.104 15.459 140.144 15.3934C140.217 15.2743 140.278 15.1492 140.328 15.0198L140.53 15.1906L140.642 15.2974L140.726 15.3721L140.787 15.4361L140.838 15.4895C140.867 15.5293 140.892 15.5723 140.91 15.6177C140.944 15.7165 140.944 15.8231 140.91 15.9219C140.856 16.0478 140.794 16.1706 140.725 16.2899C140.602 16.1857 140.483 16.0766 140.368 15.9626ZM143.124 17.5716C142.732 17.4531 142.361 17.3072 142.012 17.1338C142.19 16.8647 142.33 16.5738 142.427 16.2689C142.551 15.9101 142.565 15.5246 142.466 15.1586C142.356 14.8075 142.165 14.4846 141.906 14.2137L141.744 14.0428L141.604 13.904L141.347 13.6531L141.246 13.5517L141.201 13.5037C141.178 13.4815 141.157 13.4567 141.138 13.4329C141.129 13.4224 141.12 13.4121 141.112 13.4022C141.053 13.3396 141 13.2716 140.955 13.1994C140.928 13.1693 140.908 13.135 140.894 13.098L140.989 13.0072C141.053 12.9524 141.12 12.9007 141.19 12.8524L141.291 12.7883L141.347 12.751H141.38L141.447 12.7136C141.779 12.509 142.121 12.3208 142.473 12.1498C142.637 12.7466 142.887 13.2255 143.224 13.5866C143.38 13.754 143.551 13.9015 143.737 14.0291C143.688 14.1916 143.637 14.3605 143.585 14.5286C143.518 14.7368 143.451 14.945 143.372 15.1319C143.358 15.1651 143.345 15.1991 143.332 15.2327C143.31 15.2909 143.289 15.3481 143.26 15.3988L143.149 15.6283C143.091 15.7424 143.025 15.853 142.953 15.9593L142.874 16.0874L142.919 16.1301L143.009 16.0074C143.089 15.9044 143.164 15.7975 143.232 15.6871C143.272 15.6123 143.316 15.5376 143.367 15.4575C143.395 15.4122 143.418 15.3636 143.442 15.3134C143.46 15.2748 143.479 15.2354 143.501 15.1959C143.559 15.086 143.612 14.9683 143.666 14.8487C143.702 14.7708 143.738 14.692 143.775 14.614L143.963 14.1703C143.981 14.1807 143.999 14.1908 144.018 14.2008C144.031 14.2079 144.044 14.2148 144.057 14.2217C144.052 14.8073 143.986 15.3913 143.859 15.9646C143.672 16.5233 143.426 17.0618 143.124 17.5716ZM143.447 17.6616L143.429 17.657L143.445 17.6302C143.446 17.6407 143.446 17.6511 143.447 17.6616ZM138.87 13.585C138.993 13.9239 139.137 14.2444 139.302 14.5466C139.311 14.5028 139.323 14.4546 139.334 14.4112L139.334 14.411C139.348 14.3571 139.36 14.3106 139.36 14.2884V14.171C139.196 13.9914 139.043 13.8005 138.889 13.6077L138.888 13.6075L138.87 13.585ZM149.728 0.866577V2.93631C150.058 2.81383 150.379 2.67215 150.691 2.51203C150.959 2.38152 151.195 2.19979 151.385 1.9782L151.519 1.91947C151.638 1.75326 151.736 1.57403 151.81 1.38564C151.876 1.2145 151.935 1.04139 151.989 0.866577H149.728ZM130.091 9.12258C130.323 8.91595 130.509 8.67991 130.65 8.41447C130.785 8.4601 130.915 8.51778 131.04 8.58706C131.379 8.76829 131.745 8.89967 132.125 8.97676C131.91 9.12591 131.72 9.28497 131.541 9.43484L131.541 9.43501L131.521 9.45187L130.844 10.0551L130.794 10.0071L130.648 9.86292C130.594 9.81089 130.534 9.76438 130.469 9.72413C130.432 9.68826 130.386 9.66247 130.335 9.64939C130.282 9.63628 130.226 9.63628 130.172 9.64939C130.075 9.66951 129.983 9.70564 129.898 9.75616L129.641 9.85225L129.507 9.89496C129.466 9.91414 129.422 9.92848 129.378 9.93766H129.104C129.015 9.94832 128.924 9.94832 128.835 9.93766C128.742 9.93434 128.65 9.92 128.561 9.89496L128.308 9.83468C129.065 9.73381 129.659 9.49645 130.091 9.12258ZM4.43797 7.34599V8.70634L6.3713 6.66914C6.71103 6.50829 7.02239 6.30069 7.29463 6.05336C7.45118 7.36571 7.64052 10.527 7.72001 12.3383L6.68925 11.0757L4.43797 13.4257V17.6666H1.40566L1.13594 17.4028C1.06504 17.3287 0.989201 17.2588 0.908863 17.1934L0.820818 17.1165V17.1378L0.904232 17.2148C0.981027 17.2822 1.05374 17.3536 1.12203 17.4284L1.3454 17.6666H0.573975V12.0626C0.61806 11.9182 0.659196 11.7838 0.700331 11.6554C1.15018 11.4675 1.55382 11.1971 1.88665 10.8606C2.22643 10.4951 2.49033 10.075 2.66518 9.62143C2.74441 9.43384 2.81276 9.25629 2.87708 9.0892C2.95195 8.8947 3.02137 8.71437 3.09615 8.54887C3.16061 8.40303 3.23331 8.26039 3.31395 8.12156C3.32743 8.09981 3.34091 8.0758 3.35439 8.05179L3.3544 8.05177C3.37799 8.00975 3.40158 7.96772 3.42517 7.93781C3.45553 7.90697 3.48341 7.87412 3.50858 7.83953C3.69232 7.67283 3.90954 7.54074 4.14809 7.45068C4.24012 7.41509 4.3369 7.38038 4.43797 7.34599ZM4.43797 3.43456V5.22674C4.36602 5.25301 4.29289 5.27922 4.2186 5.30584L4.21831 5.30594L4.2183 5.30595C3.94922 5.40237 3.66476 5.5043 3.36493 5.6346C2.89694 5.83766 2.48021 6.12878 2.14153 6.48922C2.07613 6.56763 2.01534 6.65241 1.95428 6.73758L1.95428 6.73758L1.95425 6.73761C1.9288 6.77312 1.90329 6.80869 1.87739 6.84389C1.81976 6.9222 1.78794 6.98769 1.75594 7.05355C1.73905 7.08832 1.72211 7.1232 1.70129 7.16011C1.61508 7.33717 1.53881 7.52034 1.46967 7.68637L1.43252 7.77543C1.34602 8.00333 1.27533 8.21299 1.20992 8.40702L1.20991 8.40704L1.20991 8.40704L1.20991 8.40705L1.20991 8.40705C1.15267 8.57682 1.09948 8.73462 1.04325 8.88218C0.956238 9.18509 0.798031 9.46664 0.579843 9.70689H0.573975V3.81842C1.2214 3.63688 1.97508 3.59012 2.71152 3.54931C3.28938 3.54239 3.86586 3.50402 4.43797 3.43456ZM4.43797 1.40653C3.84172 1.52197 3.23692 1.59836 2.62811 1.63496C2.02503 1.69373 1.42621 1.78504 0.834718 1.90844L0.691063 1.94262H0.573975V0.866577H4.43797V1.40653ZM11.3952 16.8401L12.07 17.6666H13.6881L13.685 17.6634V17.6207C13.5374 17.4375 13.3572 17.2785 13.1521 17.1507C12.9557 17.0392 12.7364 16.9664 12.508 16.937C12.1359 16.9162 11.7648 16.8839 11.3952 16.8401ZM15.0632 17.6666H15.8816H16.606H19.8656L21.3627 14.0666H22.2399C22.2369 14.0462 22.2337 14.0259 22.2303 14.0056C22.168 13.5967 22.0672 13.1935 21.9291 12.8006C21.7901 12.411 21.6245 12.03 21.4332 11.6597C21.3933 11.5769 21.3534 11.504 21.3186 11.4404L21.3186 11.4404C21.2887 11.3858 21.2625 11.3379 21.2432 11.2965L21.1644 11.1598L21.2896 11.0914H21.1598V11.0401C21.1508 11.0132 21.1384 10.9874 21.1227 10.9632L21.0764 10.8734C20.9927 10.7321 20.8983 10.5965 20.7937 10.4675C20.7474 10.4077 20.6964 10.3479 20.6454 10.2923C20.4633 10.0801 20.2684 9.87749 20.0615 9.68552C19.9175 9.54927 19.7685 9.4177 19.6147 9.29105L18.8166 11.0816C19.1858 11.5088 19.5272 11.9558 19.8391 12.4203C20.1171 12.8263 20.3488 13.1553 20.5157 13.386L20.7798 13.7322L20.4183 14.0826L20.1079 13.745C19.9179 13.5313 19.6491 13.2151 19.334 12.8434C19.226 12.7256 19.1179 12.6015 19.0083 12.4756L19.0082 12.4755C18.9627 12.4231 18.9168 12.3704 18.8706 12.3178C18.9308 12.6126 18.9818 12.9203 19.0235 13.2237L20.4462 15.3987L20.3349 15.4842L19.0976 13.7749C19.1512 14.2205 19.2332 14.6628 19.3432 15.0996C19.3672 15.2126 19.3997 15.324 19.4406 15.4329C19.4506 15.4594 19.4599 15.485 19.4688 15.5094L19.4688 15.5095L19.4689 15.5096C19.493 15.5758 19.5142 15.6339 19.5379 15.6807L19.6306 15.8944L19.3896 16.0354L19.2784 15.8132C19.2341 15.727 19.1954 15.6386 19.1625 15.5482C19.1125 15.4341 19.0707 15.3171 19.0374 15.1979C18.857 14.5646 18.7147 13.9227 18.6111 13.2749C18.5526 12.8932 18.4623 12.5166 18.3412 12.1483L16.5539 16.1583L17.1513 15.6978L16.5489 16.1978L16.5272 16.2181L16.1428 17.0806L15.9149 16.7924C15.8311 16.8737 15.7519 16.9591 15.6777 17.0481C15.7158 17.0535 15.7545 17.0607 15.7935 17.0679L15.7936 17.0679C15.8779 17.0834 15.9644 17.0994 16.053 17.0994C16.3589 17.1378 16.6647 17.1678 16.9474 17.1934H16.9799L17.1652 17.1208C17.2567 17.0888 17.346 17.0449 17.4375 16.9999L17.4376 16.9999L17.4376 16.9999L17.4377 16.9999C17.4806 16.9788 17.524 16.9575 17.5684 16.937C17.6923 16.8741 17.8117 16.8096 17.9244 16.7486C18.0645 16.6728 18.1943 16.6026 18.3098 16.5482C18.3705 16.5135 18.4295 16.4905 18.4798 16.4708C18.5102 16.459 18.5374 16.4483 18.5601 16.4371L18.6574 16.3986V16.42L18.5601 16.4627C18.5383 16.4744 18.5108 16.4868 18.4796 16.5009L18.4795 16.5009C18.4311 16.5227 18.3736 16.5486 18.3145 16.5823C18.1523 16.6693 17.9503 16.793 17.7409 16.9212L17.5962 17.0097C17.55 17.0346 17.5044 17.0606 17.4591 17.0863C17.3726 17.1356 17.2875 17.184 17.2023 17.2233L17.5684 17.2447L18.2681 17.2746V17.5652H17.5638C17.1374 17.5694 16.5721 17.5652 16.0021 17.5267C15.8136 17.5182 15.6251 17.4963 15.4421 17.4751L15.4421 17.4751C15.3506 17.4645 15.2606 17.4541 15.1726 17.4455L14.8667 17.4156C14.8784 17.4326 14.8998 17.4573 14.9249 17.4864L14.9249 17.4864C14.9694 17.538 15.0258 17.6033 15.0614 17.6634L15.0632 17.6666ZM15.8325 16.6881L14.1762 14.5927C14.098 14.5303 14.0192 14.4685 13.9399 14.4073C13.6589 14.1724 13.3913 13.9242 13.1382 13.6638C12.9049 13.4262 12.7211 13.151 12.596 12.8519V12.9844C12.5567 13.3781 12.5567 13.7743 12.596 14.168C12.6008 14.2526 12.6145 14.3279 12.6264 14.394C12.6374 14.4547 12.647 14.5076 12.647 14.5526L12.6748 14.6979L12.5404 14.7321C12.5404 14.7321 12.5219 14.6765 12.508 14.5825C12.5034 14.5515 12.4943 14.5163 12.4841 14.4771C12.4634 14.3974 12.4385 14.3011 12.4385 14.1894C12.3837 13.7841 12.3681 13.3751 12.3921 12.9673C12.3978 12.8936 12.4082 12.8215 12.4185 12.7501L12.4185 12.7501L12.4185 12.75C12.4332 12.6475 12.4477 12.5467 12.4477 12.446C12.4463 12.4316 12.4454 12.4172 12.445 12.4027L9.24269 8.35157L11.4669 5.95799C11.4008 5.90767 11.3338 5.85827 11.266 5.8098L10.9046 5.56623L10.7146 5.44658L10.5663 5.37394V5.43804C9.02558 5.06636 9.07108 5.76486 9.14205 6.85411C9.15838 7.10482 9.17607 7.37623 9.17607 7.66006C9.17607 8.19838 9.15681 8.77653 9.13652 9.3857C9.09963 10.4932 9.05932 11.7032 9.12509 12.963C9.1272 13.0174 9.13409 13.0718 9.14099 13.1262C9.14926 13.1914 9.15753 13.2567 9.15753 13.322C9.23616 13.4682 9.31019 13.6116 9.3816 13.7499L9.38164 13.75L9.38171 13.7502L9.38172 13.7502C9.55858 14.0928 9.71941 14.4044 9.89435 14.6509C10.0146 14.8324 10.172 14.9906 10.3578 15.1167C10.5495 15.2411 10.7626 15.3349 10.988 15.3944C11.2429 15.4639 11.5031 15.5153 11.7665 15.5482L11.8952 15.5649L11.8952 15.5649C12.1482 15.5975 12.4123 15.6315 12.6933 15.6935C13.0541 15.7705 13.3934 15.916 13.6897 16.1208C13.9364 16.3065 14.1672 16.5093 14.3801 16.7276C14.4403 16.7565 14.5022 16.7821 14.5655 16.8045C14.6639 16.8354 14.7646 16.8596 14.8667 16.8772L15.2374 16.9413L15.5109 16.9883L15.5572 16.9498C15.6019 16.9103 15.6445 16.8682 15.6876 16.8256C15.7342 16.7796 15.7814 16.733 15.8325 16.6881ZM20.2177 7.9382C20.3621 8.06143 20.5 8.18807 20.6315 8.31812H20.6918C20.8367 8.35097 20.9837 8.37523 21.132 8.39076C21.2075 8.39716 21.2835 8.39716 21.3591 8.39076C21.4355 8.37875 21.5101 8.35868 21.5815 8.33094C21.6865 8.2939 21.7875 8.24738 21.8898 8.20021C21.9409 8.17663 21.9924 8.15289 22.0449 8.1301C22.0595 8.12414 22.0735 8.11609 22.0873 8.10814C22.1131 8.09331 22.1382 8.07883 22.1654 8.07883L22.2905 8.10874L22.5361 8.03609C22.6844 7.98909 22.8234 7.95063 22.9995 7.91217C23.042 7.9029 23.0831 7.89437 23.1229 7.88611L23.123 7.8861C23.2483 7.8601 23.361 7.83674 23.4629 7.80107L23.5296 7.77792L23.5296 7.77791C23.6401 7.73961 23.7464 7.70281 23.8429 7.66006C23.9177 7.63032 23.9883 7.60101 24.0543 7.57362L24.0543 7.5736L24.0646 7.56931L24.5787 6.33305C24.343 6.21139 24.1006 6.10091 23.8522 6.00209C23.5764 5.89983 23.2949 5.81139 23.0088 5.73716L22.9161 5.71579H22.8095C22.727 5.72981 22.6445 5.74336 22.5621 5.75688C22.293 5.80105 22.0259 5.84492 21.7669 5.90381L21.2432 6.00636L21.0668 6.03302L20.2177 7.9382ZM13.7018 3.55284L12.764 4.56207C12.6562 4.46596 12.5461 4.37192 12.4338 4.28002C12.2948 4.16465 12.1558 4.05355 12.0075 3.94245L11.799 3.79288L11.5255 3.61341C11.3598 3.5188 11.206 3.43796 11.0591 3.36073L11.059 3.36069L11.059 3.36068L11.0589 3.36066L11.0588 3.36062C10.947 3.30185 10.8392 3.24517 10.7331 3.1861H10.9787H11.4885L12.0029 3.1861L12.508 3.22456C12.6194 3.22456 12.723 3.2444 12.82 3.26299C12.8723 3.27301 12.9227 3.28267 12.9714 3.28865C13.0473 3.29799 13.1288 3.3188 13.2143 3.34065C13.2853 3.35879 13.3591 3.37764 13.4348 3.39121L13.4626 3.44676C13.5455 3.47619 13.6255 3.51169 13.7018 3.55284ZM14.5649 2.62401C14.3346 2.44508 14.0735 2.30131 13.7916 2.19901C13.8095 2.20524 13.8293 2.20524 13.8472 2.19901C13.7222 2.18364 13.5956 2.14832 13.4733 2.1142C13.3915 2.0914 13.3116 2.06913 13.2355 2.05372C13.1811 2.0427 13.1259 2.03063 13.0705 2.01851C12.9325 1.98833 12.7931 1.95786 12.6609 1.94262C12.5793 1.93322 12.496 1.92051 12.4124 1.90777C12.306 1.89155 12.1993 1.87528 12.0955 1.86571L11.5302 1.81443L11.005 1.78641L11.878 0.866577H16.198L14.5649 2.62401ZM21.4147 5.25267L22.661 2.45639L22.6659 2.45539C22.8186 2.42698 22.9736 2.40983 23.1293 2.40412H23.3471H23.5834L23.9773 2.43403C24.2047 2.52005 24.4233 2.62444 24.6307 2.74597C24.9654 2.96199 25.2758 3.2082 25.5575 3.48095C25.6567 3.57239 25.737 3.65805 25.7985 3.72361L25.8356 3.76297L25.9422 3.8698L26.0441 3.77152L25.9422 3.65614C25.9137 3.62814 25.8821 3.59299 25.8465 3.5533C25.7951 3.49607 25.7353 3.42943 25.6641 3.3613C25.386 3.0661 25.0754 2.7983 24.7373 2.56222L24.6261 2.49385C25.8639 2.67813 27.0813 2.96415 28.2638 3.34847L28.2875 3.27731L28.8944 4.63447C28.8141 4.65229 28.6776 4.68404 28.5095 4.7287L28.046 4.84834C27.9558 4.86709 27.8645 4.88135 27.7726 4.89107C27.6795 4.90903 27.585 4.92046 27.49 4.92526C27.3336 4.92526 27.174 4.94842 27.0191 4.97091C26.9858 4.97574 26.9527 4.98055 26.92 4.98508C26.8606 4.98508 26.8051 5.0026 26.7509 5.0197L26.7508 5.01971C26.7204 5.0293 26.6904 5.03876 26.6605 5.0449L26.438 5.09191C26.0933 5.05752 25.7478 5.03276 25.4019 5.01761L25.2641 4.68496L25.1299 5.00769C24.3296 4.98431 23.5279 5.01239 22.7308 5.09191C22.6704 5.09769 22.6097 5.10334 22.5487 5.10902L22.5487 5.10903L22.5487 5.10903C22.2491 5.13694 21.9436 5.1654 21.651 5.21156C21.5727 5.22784 21.4939 5.24155 21.4147 5.25267ZM24.9298 5.48892C24.4389 5.51632 23.9494 5.56491 23.4629 5.6346L23.9263 5.80125C24.1744 5.90929 24.4164 6.02826 24.6517 6.15769L24.9298 5.48892ZM25.5872 5.46492L27.9275 11.1146H23.3658C23.4678 11.204 23.5712 11.289 23.6759 11.3751L23.6761 11.3752C23.7267 11.4169 23.7777 11.4588 23.829 11.5016C23.8924 11.5517 23.9578 11.5964 24.0239 11.6415C24.0592 11.6657 24.0947 11.6899 24.1302 11.7153C24.2271 11.79 24.3328 11.8545 24.4454 11.9075L24.7744 12.0827L24.9922 12.1853C25.037 12.1874 25.0818 12.1874 25.1266 12.1853C25.2377 12.1913 25.3491 12.1913 25.4602 12.1853C25.5474 12.1789 25.6399 12.1627 25.7356 12.1461C25.7671 12.1406 25.7989 12.135 25.831 12.1297C26.1004 12.0766 26.3653 12.0052 26.6234 11.9161C27.0725 11.7585 27.5283 11.5695 27.8975 11.4165L28.0739 11.3435C28.4677 11.1811 28.7412 11.0914 28.7412 11.0914V11.1298C28.7412 11.1298 28.477 11.2281 28.0878 11.399C27.9486 11.4602 27.7934 11.5322 27.6273 11.6093L27.6273 11.6093C27.3288 11.7479 26.9952 11.9028 26.6558 12.04C26.3944 12.1427 26.1268 12.2312 25.8541 12.3049C25.7293 12.3378 25.6024 12.3635 25.4741 12.3819H25.3954L25.4787 12.4205L25.4789 12.4205L25.479 12.4206C25.5886 12.4715 25.6959 12.5213 25.8032 12.5656C26.248 12.7622 26.6651 12.9416 27.0312 13.0741C27.095 13.0983 27.1572 13.1224 27.2174 13.1458L27.2175 13.1459L27.2175 13.1459L27.2176 13.1459C27.3276 13.1887 27.4312 13.229 27.527 13.2621L27.9117 13.3818L28.2499 13.4801L28.2175 13.698L27.8607 13.6253L27.4483 13.5441L26.9339 13.3989C26.7578 13.3561 26.5724 13.3006 26.3824 13.2408L26.4149 13.2621C26.7475 13.4979 27.0499 13.7678 27.3162 14.0666H29.1503L30.6416 17.6666H34.7216L28.9112 4.67202C28.834 4.69246 28.6899 4.73211 28.5095 4.78852C28.3869 4.83456 28.2288 4.88059 28.0569 4.93064L28.0569 4.93065L28.046 4.93381C27.9565 4.96164 27.8652 4.98447 27.7726 5.00218C27.6779 5.02377 27.582 5.04089 27.4853 5.05345C27.2953 5.07909 27.11 5.11755 26.9385 5.15601H26.9153C27.2993 5.22106 27.6709 5.33768 28.0182 5.50213C28.0868 5.53264 28.1534 5.56689 28.2175 5.60469L28.3519 5.70297L28.4677 5.78416L28.338 5.95508L28.2314 5.89099L28.1063 5.81407C28.0463 5.78371 27.9844 5.7566 27.9209 5.73288C27.5301 5.58228 27.1154 5.49136 26.6929 5.46368H26.6558L26.7717 5.58759L27.0497 5.89526C27.0839 5.93469 27.12 5.97237 27.1557 6.0096L27.1557 6.00962L27.1557 6.00965C27.2167 6.07327 27.2764 6.13555 27.3231 6.20292L27.5409 6.49349L27.7495 6.77552L27.7263 6.79689L27.4946 6.55332L27.2629 6.28411C27.2129 6.22522 27.1529 6.17092 27.0919 6.11572C27.0512 6.0788 27.0099 6.04147 26.9709 6.00209L26.6697 5.73288C26.5678 5.64742 26.4751 5.5705 26.3963 5.51495L26.3175 5.46795C26.074 5.46173 25.8305 5.46073 25.5872 5.46492ZM27.0828 14.0666C26.8442 13.8354 26.5817 13.6261 26.299 13.4416C25.9978 13.245 25.6919 13.0698 25.4278 12.9245L24.9319 12.7451L24.5659 12.6126L24.3712 12.5314C24.5659 12.7493 24.7605 12.9716 24.9458 13.2066C25.1782 13.4835 25.3959 13.7705 25.5983 14.0666H27.0828ZM25.0719 14.0666C24.9282 13.8772 24.7774 13.6879 24.6215 13.5057C24.3295 13.1724 24.0283 12.8562 23.7317 12.5656L23.9403 13.0271C24.0005 13.1596 24.0607 13.3049 24.1117 13.4544L24.2368 13.9159L24.2792 14.0666H25.0719ZM24.1897 14.0666L24.1488 13.9416C24.1024 13.8134 24.0515 13.6638 24.0051 13.5142C23.9515 13.3689 23.8897 13.2263 23.8198 13.0869C23.7649 12.975 23.7101 12.8669 23.6574 12.7629C23.5853 12.6207 23.5172 12.4863 23.4583 12.3605C23.4517 12.3459 23.444 12.3312 23.4363 12.3167C23.417 12.2803 23.3981 12.2445 23.3981 12.2109C23.1988 12.0229 23.0088 11.852 22.8327 11.6982L22.3693 11.2709L22.3044 11.2281L21.841 11.1811C21.8827 11.2623 21.9244 11.3606 21.9708 11.476C22.1409 11.8808 22.2848 12.2946 22.4017 12.7152C22.5148 13.1361 22.5907 13.5648 22.6288 13.9971C22.6301 14.0203 22.6311 14.0434 22.632 14.0666H24.1897ZM22.7992 10.6122L22.9758 10.1876L22.9022 10.1812C22.6381 10.1513 22.3786 10.1086 22.1283 10.0573L22.2117 10.1214C22.3999 10.268 22.5972 10.4356 22.7992 10.6122ZM23.0508 10.0071L24.0379 7.63367C23.981 7.65863 23.9206 7.68483 23.8568 7.71134C23.766 7.75488 23.6638 7.79317 23.5592 7.83238C23.5303 7.8432 23.5013 7.85408 23.4722 7.86517C23.3806 7.90012 23.2826 7.92514 23.181 7.95107L23.1809 7.95107L23.1809 7.95108C23.1335 7.96318 23.0853 7.97548 23.0366 7.98909L22.5732 8.1301L22.3415 8.21129L22.221 8.24975L22.1098 8.3053C22.0561 8.3308 22.0024 8.35788 21.9486 8.38506L21.9485 8.38508C21.8489 8.43532 21.7486 8.48591 21.6464 8.5275C21.566 8.55834 21.4841 8.58543 21.4008 8.6087C21.3159 8.61283 21.2308 8.61283 21.1459 8.6087C21.0512 8.60502 20.9569 8.59645 20.8632 8.58305L21.0254 8.74971C21.3162 9.06298 21.5855 9.39265 21.8317 9.7368V9.76244C22.1903 9.86174 22.5557 9.93882 22.9254 9.99318C22.9672 9.99799 23.009 10.0026 23.0508 10.0071ZM28.0378 2.71882L27.6361 1.82037L27.5131 1.88707C27.4119 1.94234 27.3158 2.00522 27.2258 2.07508L27.2256 2.07525C27.0959 2.16493 26.9662 2.25461 26.8458 2.33147C27.2464 2.45033 27.6444 2.57883 28.0378 2.71882ZM27.5803 1.6956L27.2096 0.866577H25.53C25.0819 1.17047 24.6128 1.44713 24.1256 1.69478L24.6307 1.76315C25.2795 1.89134 25.9236 2.0409 26.5585 2.22037H26.6095C26.7943 2.13358 26.9724 2.03507 27.1424 1.92553C27.2425 1.86108 27.3478 1.80393 27.4575 1.7546L27.5803 1.6956ZM24.6928 0.866577L24.6446 0.895705L24.3666 1.03244C24.3014 1.06329 24.2373 1.09525 24.1743 1.12671L24.1743 1.12672C24.0627 1.18243 23.9542 1.23659 23.8476 1.28028L23.361 1.46403L23.1478 1.54522L23.0564 1.56931L23.3696 0.866577H24.6928ZM36.9646 17.6666V0.866577H40.8526V14.4986H49.2766V17.6666H36.9646ZM51.949 17.6666V0.866577H59.221C60.725 0.866577 62.021 1.11458 63.109 1.61058C64.197 2.09058 65.037 2.78658 65.629 3.69858C66.221 4.61058 66.517 5.69858 66.517 6.96258C66.517 8.21058 66.221 9.29058 65.629 10.2026C65.037 11.1146 64.197 11.8186 63.109 12.3146C62.021 12.7946 60.725 13.0346 59.221 13.0346H55.837V17.6666H51.949ZM59.005 9.86658H55.837V4.03458H59.005C60.205 4.03458 61.101 4.29058 61.693 4.80258C62.285 5.31458 62.581 6.03458 62.581 6.96258C62.581 7.87458 62.285 8.58658 61.693 9.09858C61.101 9.61058 60.205 9.86658 59.005 9.86658ZM107.224 4.8471V4.86446C107.222 4.8612 107.221 4.85764 107.221 4.85404C107.221 4.85044 107.222 4.84688 107.224 4.84363V4.8471Z" fill="white"/>
</svg>
